<svg xmlns="http://www.w3.org/2000/svg" width="1920" height="1080" viewBox="0 0 1920 1080">
  <defs>
    <linearGradient id="g" x1="0" x2="1" y1="0" y2="1">
      <stop offset="0" stop-color="#08080a"/>
      <stop offset="1" stop-color="#24070a"/>
    </linearGradient>
    <radialGradient id="r" cx="70%" cy="42%" r="60%">
      <stop offset="0" stop-color="#ff314d" stop-opacity=".55"/>
      <stop offset=".45" stop-color="#ff314d" stop-opacity=".12"/>
      <stop offset="1" stop-color="#000" stop-opacity="0"/>
    </radialGradient>
    <filter id="blur"><feGaussianBlur stdDeviation="14"/></filter>
  </defs>
  <rect width="1920" height="1080" fill="url(#g)"/>
  <rect width="1920" height="1080" fill="url(#r)"/>
  <g opacity=".23" stroke="#ff314d" stroke-width="2" fill="none">
    <circle cx="1470" cy="310" r="210"/>
    <circle cx="1470" cy="310" r="138"/>
    <circle cx="1470" cy="310" r="62"/>
    <path d="M1470 70v480M1230 310h480M1302 142l336 336M1638 142l-336 336"/>
  </g>
  <g opacity=".18" fill="#fff">
    <circle cx="230" cy="870" r="2"/><circle cx="490" cy="220" r="3"/><circle cx="680" cy="780" r="2"/>
    <circle cx="1020" cy="150" r="2"/><circle cx="1730" cy="810" r="3"/><circle cx="1560" cy="620" r="2"/>
  </g>
  <g opacity=".16" filter="url(#blur)">
    <path d="M0,850 C260,750 430,930 670,790 C950,630 1140,870 1410,700 C1590,590 1740,640 1920,530 L1920,1080 L0,1080 Z" fill="#ff314d"/>
  </g>
  <g fill="#fff" opacity=".10" font-family="Georgia, serif">
    <text x="92" y="850" font-size="106" font-weight="700">Crimson Frequency</text>
    <text x="98" y="920" font-size="32" letter-spacing="8">MODERN ROGUELITE ACTION RPG</text>
  </g>
  <rect width="1920" height="1080" fill="#000" opacity=".16"/>
</svg>